<svg width="60" height="49" viewBox="0 0 60 49" fill="none" xmlns="http://www.w3.org/2000/svg">
<path d="M28.8566 0.635913C28.6454 0.722882 28.3348 0.996212 28.1733 1.21984C27.8751 1.62984 27.8751 1.69196 27.8751 4.33829C27.8751 6.86038 27.8876 7.04674 28.136 7.36976C28.5957 7.99097 29.0057 8.2146 29.6766 8.2146C30.3475 8.2146 30.7575 7.99097 31.2172 7.36976C31.4533 7.05916 31.4781 6.83553 31.5154 4.46253C31.5402 2.13923 31.5278 1.85347 31.3166 1.4559C31.1799 1.21984 30.9315 0.921667 30.7575 0.785002C30.3475 0.486825 29.366 0.399856 28.8566 0.635913Z" fill="#FDFDFD"/>
<path d="M5.36273 10.4137C4.99001 10.6 4.76637 10.8236 4.59244 11.1964C4.26941 11.8424 4.26941 12.1779 4.56759 12.8239C4.84092 13.4079 7.83512 16.4145 8.3445 16.6008C9.90994 17.1972 11.376 15.7312 10.7796 14.1657C10.7175 13.9794 9.94721 13.0973 9.07752 12.2276C7.02755 10.1403 6.46847 9.86699 5.36273 10.4137Z" fill="#FDFDFD"/>
<path d="M52.3505 10.3889C51.7542 10.6746 48.76 13.6688 48.5612 14.1658C47.9773 15.7437 49.4433 17.1973 51.0087 16.6009C51.5181 16.4146 54.5123 13.4079 54.7856 12.824C55.0838 12.178 55.0838 11.8425 54.7608 11.1965C54.5744 10.8113 54.3632 10.6001 53.9781 10.4137C53.332 10.0907 52.9966 10.0907 52.3505 10.3889Z" fill="#FDFDFD"/>
<path d="M27.1918 13.8925C22.0855 14.4765 17.2153 16.9489 13.7241 20.7382C12.3078 22.2664 11.2642 23.7945 10.2951 25.7451C9.48754 27.3602 8.61785 29.6587 8.70482 29.9196C8.72967 29.9693 8.99057 29.8326 9.28875 29.5966C11.4754 27.8572 14.5317 27.9814 16.5444 29.8947C17.2774 30.5905 17.6626 30.7769 18.3707 30.7769C19.0665 30.7769 19.4392 30.6029 20.2219 29.8823C22.4458 27.8448 25.7382 27.882 27.9248 29.9693C28.5212 30.5284 28.7448 30.665 29.2169 30.7272C30.1612 30.8638 30.6209 30.7023 31.416 29.9693C32.5839 28.8884 33.789 28.4163 35.3296 28.4163C36.8826 28.4163 38.125 28.9257 39.3177 30.0563C39.8271 30.5284 40.0631 30.665 40.5228 30.7272C41.4671 30.8638 41.9268 30.7023 42.7219 29.9693C43.9892 28.8014 45.2191 28.3542 46.9461 28.4411C47.8655 28.4784 48.1388 28.5529 48.9464 28.9505C49.4557 29.199 50.0521 29.5593 50.2882 29.7457L50.7106 30.0935L50.6112 29.6587C50.4372 28.8139 49.6421 26.8508 48.9215 25.4345C44.8216 17.4955 36.1371 12.8862 27.1918 13.8925Z" fill="#FDFDFD"/>
<path d="M1.0019 31.3607C0.119791 31.7955 -0.252931 32.9137 0.181911 33.8331C0.604329 34.7152 1.83431 35.7961 3.11399 36.4048C3.74762 36.7154 4.58003 37.0385 4.95275 37.1379C5.97152 37.3863 8.43149 37.3366 9.42541 37.0509C10.3324 36.79 11.6369 36.1688 12.2705 35.6967C12.7054 35.3736 12.7302 35.3736 13.339 35.8209C13.9478 36.2558 15.1653 36.8273 16.0226 37.0633C17.1532 37.3739 19.638 37.3739 20.7313 37.0509C21.6383 36.79 22.9428 36.1688 23.5764 35.6967C24.0113 35.3736 24.0361 35.3736 24.6449 35.8209C25.2164 36.2433 26.4215 36.8024 27.3161 37.0633C28.5585 37.4112 30.9315 37.3863 32.1614 37.0012C33.1926 36.6906 34.2363 36.1812 34.8823 35.6967C35.3172 35.3736 35.342 35.3736 35.9508 35.8209C36.5223 36.2433 37.7274 36.8024 38.622 37.0633C39.2183 37.2248 39.8395 37.2869 40.9825 37.2869C42.1255 37.2869 42.7467 37.2248 43.3431 37.0633C44.2376 36.8024 45.4428 36.2433 46.0143 35.8209C46.623 35.3736 46.6479 35.3736 47.0827 35.6967C47.7164 36.1688 49.0209 36.79 49.9278 37.0509C50.9218 37.3366 53.3817 37.3863 54.4005 37.1379C54.7732 37.0385 55.6056 36.7154 56.2393 36.4048C58.1898 35.4855 59.5316 33.8703 59.3204 32.7397C59.1465 31.7955 58.4011 31.1495 57.4817 31.1495C56.9102 31.1495 56.4132 31.4352 55.8168 32.1185C54.8726 33.1994 53.4687 33.7212 51.8411 33.597C50.6733 33.51 49.7291 33.0876 48.847 32.2552C48.0518 31.4973 47.5424 31.2737 46.6355 31.2737C45.7285 31.2737 45.157 31.5222 44.3991 32.2676C44.0637 32.6031 43.4425 33.0379 43.0325 33.2243C42.3616 33.5349 42.1504 33.5722 40.9825 33.5722C39.8147 33.5722 39.6035 33.5349 38.9326 33.2243C38.5226 33.0379 37.9138 32.6031 37.5659 32.2676C36.808 31.5222 36.2365 31.2737 35.3296 31.2737C34.4226 31.2737 33.876 31.5222 33.0932 32.2552C31.9751 33.3112 30.8072 33.7212 29.2294 33.597C28.0615 33.51 27.08 33.0752 26.26 32.28C25.4152 31.4601 24.9555 31.2488 24.0113 31.2488C23.0795 31.2613 22.6446 31.4601 21.7625 32.2925C21.4022 32.6279 20.781 33.0503 20.3959 33.2367C19.7622 33.5349 19.5262 33.5722 18.3707 33.5722C17.2029 33.5722 16.9917 33.5349 16.3208 33.2243C15.9108 33.0379 15.302 32.6031 14.9541 32.28C14.1093 31.4601 13.6247 31.2364 12.7178 31.2364C11.8108 31.2364 11.3263 31.4601 10.4815 32.28C10.146 32.6031 9.5248 33.0379 9.11481 33.2243C8.44391 33.5349 8.2327 33.5722 7.06484 33.5722C5.83486 33.5722 5.69819 33.5473 4.9279 33.1622C4.39367 32.9013 3.89671 32.5285 3.56126 32.1558C2.69157 31.1743 1.88401 30.9258 1.0019 31.3607Z" fill="#FDFDFD"/>
<path d="M23.1005 43.1266C22.8645 43.226 22.3924 43.5863 22.0445 43.9217C21.709 44.2572 21.0878 44.692 20.6779 44.8784C20.007 45.189 19.7957 45.2263 18.6279 45.2263C17.46 45.2263 17.2488 45.189 16.5779 44.8784C16.1679 44.692 15.584 44.2945 15.2734 43.9963C14.5528 43.3005 14.3043 43.1763 13.5837 43.1763C12.5277 43.1763 11.7946 43.9217 11.7946 44.9778C11.7946 45.6611 12.1177 46.2078 12.9377 46.9656C15.6337 49.4008 20.243 49.6865 23.436 47.6241L24.3057 47.065L25.1008 47.5993C27.9832 49.5498 32.3565 49.438 35.1395 47.3508C35.3755 47.1768 35.624 47.0775 35.6985 47.1272C35.7731 47.1768 36.1582 47.4253 36.5434 47.6738C39.7985 49.8232 44.8799 49.2889 47.3647 46.5432C47.9114 45.9344 48.0729 45.5741 48.0729 44.9405C48.0729 43.9342 47.2902 43.1763 46.2341 43.1763C45.5632 43.1763 45.3023 43.313 44.5942 43.9963C44.2836 44.2945 43.6996 44.692 43.2896 44.8784C42.6187 45.189 42.4075 45.2263 41.2397 45.2263C40.0718 45.2263 39.8606 45.189 39.2021 44.8784C38.7921 44.692 38.1585 44.2572 37.7982 43.9093C37.0031 43.1514 36.4937 42.9278 35.5867 42.9278C34.6798 42.9278 34.1083 43.1763 33.3504 43.9217C33.0149 44.2572 32.3937 44.692 31.9837 44.8784C31.3128 45.189 31.1016 45.2263 29.9338 45.2263C28.7659 45.2263 28.5547 45.189 27.8838 44.8784C27.4738 44.692 26.865 44.2572 26.5172 43.9217C26.1817 43.5863 25.6847 43.226 25.4363 43.1142C24.8523 42.8781 23.672 42.8781 23.1005 43.1266Z" fill="#FDFDFD"/>
</svg>
