<svg width="50" height="50" viewBox="0 0 50 50" fill="none" xmlns="http://www.w3.org/2000/svg">
<path d="M0.803572 0.223213C0.602679 0.345982 0.345982 0.602676 0.223214 0.80357C0 1.17188 0 1.41741 0 25C0 48.5826 0 48.8281 0.223214 49.1964C0.345982 49.3973 0.602679 49.654 0.803572 49.7768C1.17188 50 1.40625 50 17.8683 50H34.5647L34.933 49.7433C35.1451 49.6094 35.413 49.3192 35.5357 49.1071C35.7589 48.7277 35.7701 48.5268 35.8036 43.8281C35.8259 41.1496 35.8036 38.9509 35.7701 38.9509C35.7255 38.9509 35.3572 39.2411 34.9554 39.6094C33.1808 41.1607 31.1942 42.154 29.0179 42.567C27.913 42.779 26.4509 42.8125 25.8147 42.6451C24.8103 42.3772 23.7165 41.2946 23.4375 40.3125C23.2701 39.6987 23.3036 38.1027 23.5045 37.0536C23.6942 36.0156 24.096 34.8549 24.5759 33.8728C25.3795 32.2656 25.8817 31.7076 30.8817 26.6629L35.8371 21.6964L35.8036 11.4844C35.7701 1.42857 35.7701 1.28348 35.5357 0.892857C35.413 0.680801 35.1451 0.390625 34.933 0.256695L34.5647 0H17.8683C1.40625 0 1.17188 0 0.803572 0.223213ZM22.2656 7.45536C24.9219 8.79464 26.2277 9.52009 26.3728 9.72098C26.6853 10.1562 26.7411 10.6027 26.6518 11.9196C26.4286 15.3906 25.0893 18.4152 22.4777 21.2946C21.7857 22.0647 19.2188 24.3527 18.6942 24.6763C18.2589 24.9442 17.4554 24.9442 17.0201 24.6763C16.4509 24.3304 13.8839 22.0201 13.1473 21.2054C10.4688 18.2031 9.04018 14.7545 9.04018 11.2723C9.04018 9.60938 8.82813 9.78794 13.4487 7.45536C16.7857 5.77009 17.433 5.47991 17.8571 5.47991C18.2813 5.47991 18.9286 5.77009 22.2656 7.45536ZM10.3795 28.9509C11.0714 29.308 11.6629 29.8661 11.9978 30.4799C12.2991 31.0268 12.3326 31.1719 12.3326 32.1429C12.3326 33.3594 12.1429 33.8393 11.3839 34.5982C10.625 35.3571 10.1451 35.5469 8.92857 35.5469C8.03572 35.5469 7.79018 35.5022 7.38839 35.2902C6.77456 34.9554 6.10491 34.2857 5.79241 33.683C5.49107 33.1027 5.39063 31.8527 5.5692 31.1719C5.83706 30.2009 6.89732 29.096 7.85714 28.7946C8.40402 28.6272 9.92188 28.7277 10.3795 28.9509ZM22.2098 30.6473C22.779 30.9821 23.1027 31.5179 23.1027 32.1429C23.1027 32.7679 22.779 33.3036 22.2098 33.6384C21.8415 33.8616 21.6406 33.8728 18.75 33.8728C15.8594 33.8728 15.6585 33.8616 15.2902 33.6384C13.8839 32.8237 14.1853 30.8594 15.7701 30.4576C15.9598 30.4129 17.4107 30.3795 18.9732 30.3906C21.6183 30.4129 21.8415 30.4241 22.2098 30.6473ZM10.3795 37.8795C11.0714 38.2366 11.6629 38.7946 11.9978 39.4085C12.2991 39.9554 12.3326 40.1004 12.3326 41.0714C12.3326 42.2879 12.1429 42.7679 11.3839 43.5268C10.625 44.2857 10.1451 44.4754 8.92857 44.4754C8.03572 44.4754 7.79018 44.4308 7.38839 44.2188C6.77456 43.8839 6.10491 43.2143 5.79241 42.6116C5.49107 42.0312 5.39063 40.7812 5.5692 40.1004C5.83706 39.1295 6.89732 38.0246 7.85714 37.7232C8.40402 37.5558 9.92188 37.6562 10.3795 37.8795ZM20.4241 39.5759C21.6183 40.279 21.6183 41.8638 20.4241 42.567C20.067 42.779 19.8549 42.8013 17.8571 42.8013C15.8594 42.8013 15.6473 42.779 15.2902 42.567C13.8839 41.7522 14.1853 39.7879 15.7701 39.3862C15.9598 39.3415 17.0089 39.308 18.0804 39.3192C19.8214 39.3415 20.0781 39.3638 20.4241 39.5759Z" fill="#FDFDFD"/>
<path d="M20.4139 9.96448C20.1014 10.1765 19.7889 10.7011 18.6952 12.8774L17.3559 15.5225L16.4072 14.5627C15.28 13.4355 15.0456 13.2904 14.2644 13.2904C13.1818 13.2904 12.501 13.9712 12.501 15.0538C12.501 15.3774 12.5568 15.7569 12.6237 15.8908C12.8023 16.2368 16.6304 20.0872 16.9876 20.277C17.155 20.3663 17.5568 20.4332 17.8916 20.4332C18.9965 20.4332 19.0077 20.4221 21.2287 16.0247C23.059 12.3975 23.2041 12.0739 23.2041 11.5047C23.2153 10.3774 22.5568 9.71894 21.4184 9.71894C20.9608 9.71894 20.6929 9.7859 20.4139 9.96448Z" fill="#FDFDFD"/>
<path d="M44.2969 15.0473C43.9509 15.1589 43.4487 15.4044 43.1808 15.5941C42.3884 16.141 27.2098 31.4423 26.7634 32.1343C25.5804 33.9758 25 35.8062 25 37.6923C25 39.333 25.5022 39.8352 27.1429 39.8352C29.2299 39.8352 31.4844 39.0316 33.2366 37.67C33.5826 37.4022 37.3661 33.6633 41.6406 29.3776C50.3237 20.6611 49.8884 21.1857 49.9777 19.4781C50.0446 18.3173 49.8661 17.5696 49.3304 16.7437C48.3036 15.1589 46.183 14.4446 44.2969 15.0473Z" fill="#FDFDFD"/>
</svg>
