<svg width="44" height="44" viewBox="0 0 44 44" fill="none" xmlns="http://www.w3.org/2000/svg">
<path d="M11.5733 0.697153C11.0005 1.04668 10.8743 1.3865 10.8743 2.56131V3.60989H7.34012C4.14581 3.60989 3.74773 3.62931 3.21373 3.79437C1.78648 4.24099 0.57284 5.46434 0.155346 6.90129C0.0291275 7.32849 0 7.95959 0 10.183V12.9307H21.7485H43.497V10.183C43.497 7.95959 43.4679 7.32849 43.3417 6.90129C42.9242 5.46434 41.7105 4.24099 40.2833 3.79437C39.7493 3.62931 39.3512 3.60989 36.1569 3.60989H32.6228V2.56131C32.6228 1.3865 32.4965 1.04668 31.9237 0.697153C31.4868 0.435006 30.6518 0.435006 30.2149 0.697153C29.642 1.04668 29.5158 1.3865 29.5158 2.56131V3.60989H21.7485H13.9812V2.56131C13.9812 1.69719 13.9521 1.47388 13.787 1.20203C13.4957 0.73599 13.0588 0.502971 12.4277 0.502971C12.0685 0.502971 11.7869 0.561225 11.5733 0.697153Z" fill="#FDFDFD"/>
<path d="M0 28.1061C0 38.8444 0.0194183 40.2329 0.155346 40.7086C0.57284 42.1456 1.78648 43.3689 3.21373 43.8155C3.78657 43.9903 4.40796 44 21.7485 44C39.0891 44 39.7104 43.9903 40.2833 43.8155C41.7105 43.3689 42.9242 42.1456 43.3417 40.7086C43.4776 40.2329 43.497 38.8444 43.497 28.1061V16.0377H21.7485H0V28.1061ZM30.1955 22.4651C30.6518 22.6982 31.0693 23.3195 31.0693 23.7759C31.0693 24.407 30.8751 24.6011 25.2244 29.4363C22.166 32.0675 19.5348 34.3006 19.3698 34.3977C19.0202 34.621 18.3503 34.6404 17.9814 34.4462C17.525 34.2035 12.6413 29.2227 12.5636 28.9217C12.4666 28.5139 12.5734 27.9314 12.8064 27.611C13.1753 27.0964 14.0589 26.844 14.5929 27.1158C14.7094 27.1741 15.69 28.0964 16.758 29.1644L18.7192 31.1063L23.4573 27.0381C26.0691 24.805 28.3799 22.8341 28.5935 22.669C29.1954 22.203 29.5644 22.1544 30.1955 22.4651Z" fill="#FDFDFD"/>
</svg>
