<svg width="52" height="52" viewBox="0 0 52 52" fill="none" xmlns="http://www.w3.org/2000/svg">
<path d="M49.4 37.7V14.3C49.4 12.142 47.658 10.4 45.5 10.4H9.07401C6.91601 10.4 5.17401 12.142 5.17401 14.3V37.7C5.17401 39.858 6.91601 41.6 9.07401 41.6H45.5C47.658 41.6 49.4 39.858 49.4 37.7ZM45.994 14.014C46.852 14.872 46.384 15.756 45.916 16.198L35.36 25.87L45.5 36.426C45.812 36.79 46.02 37.362 45.656 37.752C45.318 38.168 44.538 38.142 44.2 37.882L32.838 28.184L27.274 33.254L21.736 28.184L10.374 37.882C10.036 38.142 9.25601 38.168 8.91801 37.752C8.55401 37.362 8.76201 36.79 9.07401 36.426L19.214 25.87L8.65801 16.198C8.19001 15.756 7.72201 14.872 8.58001 14.014C9.43801 13.156 10.322 13.572 11.05 14.196L27.274 27.3L43.524 14.196C44.252 13.572 45.136 13.156 45.994 14.014Z" fill="#FF870F"/>
</svg>
