<svg width="293" height="264" viewBox="0 0 293 264" fill="none" xmlns="http://www.w3.org/2000/svg">
<path d="M91.3191 220.843C91.3191 220.843 103.605 181.983 95.9576 158.972C89.0817 138.284 75.6737 121.016 60.5506 113.846C50.2835 108.977 37.528 108.876 32.2238 118.896C26.311 130.067 37.6831 141.199 46.2958 146.515C60.0197 154.985 82.5934 161.751 104.023 162.796C118.507 163.503 141.599 159.359 149.955 141.45C156.294 127.864 153.097 116.916 147.125 103.145C140.658 88.2332 133.568 77.0029 118.922 68.8265C108.181 62.8302 93.6479 61.9379 86.5784 71.9729C80.951 79.9608 81.819 87.9488 87.5822 95.8592C94.3145 105.1 105.411 112.215 117.476 116.193C128.138 119.71 144.568 123.263 162.519 122.765C186.226 122.107 232.093 95.034 252.5 83.0001" stroke="#00866B" stroke-opacity="0.2" stroke-width="2" stroke-linecap="round" stroke-dasharray="6 6"/>
<path d="M280.141 59.1111C278.86 57.4935 276.527 57.2224 274.934 58.506L264.269 66.9504L242.301 59.1205L238.411 62.1785L255.553 73.829L244.861 82.2951L238.897 80.706L235.988 83.0316L243.297 88.262L246.734 96.6025L249.689 94.3071L249.494 88.061L260.104 79.66L267.587 99.0255L271.455 95.9401L268.871 72.7626L279.536 64.3182C281.12 63.1083 281.406 60.6521 280.141 59.1111Z" fill="#00866B"/>
</svg>
