<svg width="18" height="19" viewBox="0 0 18 19" fill="none" xmlns="http://www.w3.org/2000/svg">
<path d="M5.4375 2C4.79103 2 4.17105 2.25286 3.71393 2.70294C3.25681 3.15303 3 3.76348 3 4.4V15.6C3 16.2365 3.25681 16.847 3.71393 17.2971C4.17105 17.7471 4.79103 18 5.4375 18H13.5625C14.209 18 14.829 17.7471 15.2861 17.2971C15.7432 16.847 16 16.2365 16 15.6V4.4C16 3.76348 15.7432 3.15303 15.2861 2.70294C14.829 2.25286 14.209 2 13.5625 2H5.4375ZM8.6875 3.6H10.3125C10.528 3.6 10.7347 3.68429 10.887 3.83431C11.0394 3.98434 11.125 4.18783 11.125 4.4C11.125 4.61217 11.0394 4.81566 10.887 4.96569C10.7347 5.11571 10.528 5.2 10.3125 5.2H8.6875C8.47201 5.2 8.26535 5.11571 8.11298 4.96569C7.9606 4.81566 7.875 4.61217 7.875 4.4C7.875 4.18783 7.9606 3.98434 8.11298 3.83431C8.26535 3.68429 8.47201 3.6 8.6875 3.6ZM11.125 8.4C11.125 8.82435 10.9538 9.23131 10.649 9.53137C10.3443 9.83143 9.93098 10 9.5 10C9.06902 10 8.6557 9.83143 8.35095 9.53137C8.04621 9.23131 7.875 8.82435 7.875 8.4C7.875 7.97565 8.04621 7.56869 8.35095 7.26863C8.6557 6.96857 9.06902 6.8 9.5 6.8C9.93098 6.8 10.3443 6.96857 10.649 7.26863C10.9538 7.56869 11.125 7.97565 11.125 8.4ZM6.25 12.4C6.25 12.1878 6.3356 11.9843 6.48798 11.8343C6.64035 11.6843 6.84701 11.6 7.0625 11.6H11.9375C12.153 11.6 12.3597 11.6843 12.512 11.8343C12.6644 11.9843 12.75 12.1878 12.75 12.4C12.75 14 11.125 14.8 9.5 14.8C7.875 14.8 6.25 14 6.25 12.4Z" fill="#FF870F"/>
</svg>
