<svg width="58" height="58" viewBox="0 0 58 58" fill="none" xmlns="http://www.w3.org/2000/svg">
<rect width="53.4978" height="53.4978" rx="5" fill="#00866B"/>
<path d="M27.0715 17.5H32.674C33.0823 17.5001 33.4829 17.6114 33.8328 17.8218L37.0424 19.75C37.4308 19.9833 37.7522 20.3131 37.9753 20.7074C38.1984 21.1016 38.3157 21.547 38.3157 22C38.3157 22.453 38.1984 22.8984 37.9753 23.2926C37.7522 23.6869 37.4308 24.0167 37.0424 24.25L33.8328 26.1783C33.4829 26.3886 33.0823 26.4999 32.674 26.5H27.0715V36.625C27.0715 36.9234 26.953 37.2095 26.742 37.4205C26.531 37.6315 26.2449 37.75 25.9465 37.75C25.6482 37.75 25.362 37.6315 25.151 37.4205C24.9401 37.2095 24.8215 36.9234 24.8215 36.625V26.5H18.0715C17.4748 26.5 16.9025 26.2629 16.4805 25.841C16.0586 25.419 15.8215 24.8467 15.8215 24.25V19.75C15.8215 19.1533 16.0586 18.581 16.4805 18.159C16.9025 17.7371 17.4748 17.5 18.0715 17.5H24.8215V16.375C24.8215 16.0766 24.9401 15.7905 25.151 15.5795C25.362 15.3685 25.6482 15.25 25.9465 15.25C26.2449 15.25 26.531 15.3685 26.742 15.5795C26.953 15.7905 27.0715 16.0766 27.0715 16.375V17.5Z" fill="#FDFDFD"/>
<rect x="2.5" y="2.25" width="55" height="55" rx="4.5" stroke="#00866B" stroke-dasharray="2 4 6 8"/>
</svg>
