<svg width="22" height="26" viewBox="0 0 22 26" fill="none" xmlns="http://www.w3.org/2000/svg">
<path d="M15.1857 0.843285C16.7347 0.843285 18.2203 1.45864 19.3156 2.55397C20.4109 3.6493 21.0263 5.13489 21.0263 6.68393V16.029C21.0263 17.578 20.4109 19.0636 19.3156 20.1589C18.2203 21.2542 16.7347 21.8696 15.1857 21.8696H5.84063C4.29159 21.8696 2.806 21.2542 1.71067 20.1589C0.615336 19.0636 -1.52588e-05 17.578 -1.52588e-05 16.029V6.68393C-1.52588e-05 5.13489 0.615336 3.6493 1.71067 2.55397C2.806 1.45864 4.29159 0.843285 5.84063 0.843285H15.1857ZM10.5131 6.68393C9.27391 6.68393 8.08544 7.17621 7.20918 8.05248C6.33291 8.92874 5.84063 10.1172 5.84063 11.3564C5.84063 12.5957 6.33291 13.7841 7.20918 14.6604C8.08544 15.5367 9.27391 16.029 10.5131 16.029C11.7524 16.029 12.9408 15.5367 13.8171 14.6604C14.6934 13.7841 15.1857 12.5957 15.1857 11.3564C15.1857 10.1172 14.6934 8.92874 13.8171 8.05248C12.9408 7.17621 11.7524 6.68393 10.5131 6.68393ZM10.5131 9.02018C11.1328 9.02018 11.727 9.26633 12.1651 9.70446C12.6033 10.1426 12.8494 10.7368 12.8494 11.3564C12.8494 11.9761 12.6033 12.5703 12.1651 13.0084C11.727 13.4466 11.1328 13.6927 10.5131 13.6927C9.89353 13.6927 9.29929 13.4466 8.86116 13.0084C8.42303 12.5703 8.17688 11.9761 8.17688 11.3564C8.17688 10.7368 8.42303 10.1426 8.86116 9.70446C9.29929 9.26633 9.89353 9.02018 10.5131 9.02018ZM15.7697 4.93173C15.4599 4.93173 15.1628 5.05481 14.9437 5.27387C14.7247 5.49294 14.6016 5.79006 14.6016 6.09986C14.6016 6.40967 14.7247 6.70679 14.9437 6.92585C15.1628 7.14492 15.4599 7.26799 15.7697 7.26799C16.0795 7.26799 16.3766 7.14492 16.5957 6.92585C16.8148 6.70679 16.9378 6.40967 16.9378 6.09986C16.9378 5.79006 16.8148 5.49294 16.5957 5.27387C16.3766 5.05481 16.0795 4.93173 15.7697 4.93173Z" fill="#FDFDFD"/>
</svg>
