<svg width="15" height="21" viewBox="0 0 15 21" fill="none" xmlns="http://www.w3.org/2000/svg">
<path d="M7.75494 9.98351C7.11113 10.1392 6.43186 10.0327 5.86655 9.68752C5.30125 9.34235 4.89622 8.78674 4.74056 8.14294C4.5849 7.49913 4.69138 6.81986 5.03655 6.25455C5.38173 5.68925 5.93733 5.28421 6.58114 5.12856C7.22494 4.9729 7.90422 5.07937 8.46952 5.42455C9.03483 5.76972 9.43986 6.32533 9.59551 6.96914C9.67259 7.28792 9.68612 7.61876 9.63533 7.94277C9.58454 8.26678 9.47044 8.57761 9.29952 8.85752C9.12861 9.13743 8.90424 9.38094 8.63922 9.57414C8.3742 9.76733 8.07372 9.90644 7.75494 9.98351ZM5.52472 0.759101C3.72206 1.19494 2.16637 2.32902 1.19988 3.91188C0.233386 5.49473 -0.0647329 7.3967 0.371102 9.19935C1.60359 14.2971 10.2199 20.1789 10.2199 20.1789C10.2199 20.1789 15.1975 11.0104 13.965 5.91272C13.5291 4.11006 12.395 2.55437 10.8122 1.58788C9.22934 0.621385 7.32738 0.323266 5.52472 0.759101Z" fill="#00866B"/>
</svg>
