<svg width="52" height="52" viewBox="0 0 52 52" fill="none" xmlns="http://www.w3.org/2000/svg">
<path d="M26 4.33334C21.6902 4.33334 17.557 6.04538 14.5095 9.09285C11.462 12.1403 9.75 16.2736 9.75 20.5833C9.75 24.7693 12.0553 28.8167 14.664 32.1013C17.3073 35.4315 20.4663 38.2308 22.5832 39.949C24.5895 41.574 27.4105 41.574 29.4168 39.949C31.5337 38.2308 34.6927 35.4315 37.336 32.1013C39.9447 28.8188 42.25 24.7693 42.25 20.5833C42.25 16.2736 40.538 12.1403 37.4905 9.09285C34.443 6.04538 30.3098 4.33334 26 4.33334ZM31.4167 20.5833C31.4167 22.0199 30.846 23.3977 29.8302 24.4135C28.8143 25.4293 27.4366 26 26 26C24.5634 26 23.1857 25.4293 22.1698 24.4135C21.154 23.3977 20.5833 22.0199 20.5833 20.5833C20.5833 19.1467 21.154 17.769 22.1698 16.7532C23.1857 15.7374 24.5634 15.1667 26 15.1667C27.4366 15.1667 28.8143 15.7374 29.8302 16.7532C30.846 17.769 31.4167 19.1467 31.4167 20.5833ZM38.311 34.3352C37.5223 35.2712 36.7077 36.1595 35.8973 36.985C36.6701 37.2017 37.3851 37.44 38.0423 37.7C39.5503 38.2937 40.6575 38.9567 41.3617 39.6153C42.0658 40.2697 42.25 40.794 42.25 41.1667C42.25 41.5393 42.0658 42.0637 41.3617 42.718C40.6575 43.3745 39.5503 44.0397 38.0445 44.6333C35.0415 45.8163 30.7862 46.5833 26 46.5833C21.2138 46.5833 16.9585 45.8163 13.9555 44.6333C12.4497 44.0418 11.3425 43.3767 10.6362 42.718C9.93417 42.0637 9.75 41.5393 9.75 41.1667C9.75 40.794 9.93417 40.2697 10.6383 39.6153C11.3425 38.9588 12.4497 38.2937 13.9555 37.7C14.6156 37.44 15.3306 37.2017 16.1005 36.985C15.2637 36.1323 14.4593 35.2484 13.689 34.3352C13.3727 34.4435 13.0643 34.5569 12.7638 34.6753C11.0348 35.3578 9.52683 36.2072 8.42183 37.2363C7.31683 38.2677 6.5 39.5937 6.5 41.1667C6.5 42.7397 7.31467 44.0657 8.42183 45.097C9.52683 46.1262 11.0348 46.9777 12.7638 47.658C16.2327 49.023 20.9127 49.8333 26 49.8333C31.0873 49.8333 35.7673 49.0252 39.234 47.658C40.9652 46.9777 42.4732 46.1262 43.5782 45.097C44.6832 44.0657 45.5 42.7397 45.5 41.1667C45.5 39.5937 44.6853 38.2677 43.5782 37.2363C42.4732 36.2093 40.9652 35.3578 39.234 34.6753C38.935 34.5583 38.6273 34.4449 38.311 34.3352Z" fill="#FF870F"/>
</svg>
