<svg width="50" height="50" viewBox="0 0 50 50" fill="none" xmlns="http://www.w3.org/2000/svg">
<path d="M44.4375 39.6562C44.1759 40.8292 43.5272 41.88 42.5959 42.6396C41.5784 43.6715 40.366 44.491 39.0291 45.0503C37.6923 45.6097 36.2575 45.8978 34.8084 45.8979H34.1313C31.0897 45.7328 28.1115 44.9629 25.3709 43.6333H25.35C24.7146 43.3375 24.0584 43.0417 23.423 42.6812C20.2238 40.8875 17.2895 38.6578 14.7042 36.0562C11.3491 32.9049 8.59588 29.169 6.5792 25.0312C5.50743 22.7636 4.79207 20.3442 4.45837 17.8583C3.96767 15.2563 4.26285 12.567 5.30629 10.1333C5.96503 9.03537 6.76958 8.03179 7.69795 7.15C8.11569 6.6776 8.62642 6.29649 9.19818 6.0305C9.76995 5.76451 10.3904 5.61937 11.0209 5.60416C11.7065 5.67993 12.3702 5.89114 12.9736 6.22553C13.5769 6.55992 14.1078 7.01083 14.5355 7.55208C15.4875 8.5875 16.65 9.66666 17.6042 10.6625L18.9167 11.9542C19.6875 12.6375 20.1646 13.5917 20.25 14.6208C20.25 15.5646 19.9021 16.475 19.275 17.1812C18.8689 17.6752 18.4378 18.148 17.9834 18.5979L17.5605 19.0417C17.3146 19.2708 17.1271 19.5542 17.0105 19.8687C16.9063 20.1785 16.8646 20.4958 16.8855 20.8208C17.2209 21.7187 17.748 22.5354 18.4271 23.2125C19.4875 24.65 20.5459 25.9 21.625 27.2542C23.577 29.5203 25.8936 31.4446 28.4792 32.9479C28.7438 33.1417 29.048 33.2708 29.3709 33.3271C29.65 33.3479 29.9334 33.3062 30.1959 33.2021C30.9355 32.7667 31.5917 32.2083 32.1417 31.55C32.8813 30.6442 33.9432 30.0603 35.1042 29.9208C36.2215 29.9362 37.2873 30.3931 38.0688 31.1917C38.4917 31.55 38.9563 32.0375 39.4021 32.5042L40.0354 33.1583L40.6917 33.7937L41.8146 34.9354C42.4841 35.5299 43.1118 36.1653 43.698 36.8417C44.2855 37.6542 44.55 38.6604 44.4375 39.6562ZM36.8417 25.1583C36.422 25.154 36.0207 24.9853 35.724 24.6886C35.4272 24.3918 35.2585 23.9905 35.2542 23.5708C35.2564 22.3724 35.022 21.1854 34.5644 20.0778C34.1068 18.9703 33.4351 17.9639 32.5877 17.1165C31.7403 16.2691 30.7339 15.5974 29.6264 15.1398C28.5188 14.6822 27.3318 14.4478 26.1334 14.45C25.7123 14.45 25.3085 14.2827 25.0108 13.985C24.7131 13.6873 24.5459 13.2835 24.5459 12.8625C24.5459 12.4415 24.7131 12.0377 25.0108 11.74C25.3085 11.4423 25.7123 11.275 26.1334 11.275C27.7488 11.2725 29.3488 11.5889 30.8417 12.2059C32.3346 12.823 33.6911 13.7286 34.8333 14.8709C35.9756 16.0131 36.8812 17.3696 37.4983 18.8625C38.1153 20.3554 38.4317 21.9554 38.4292 23.5708C38.4297 23.7795 38.3891 23.9861 38.3095 24.179C38.2299 24.3718 38.113 24.5471 37.9655 24.6946C37.8179 24.8421 37.6427 24.959 37.4499 25.0386C37.257 25.1182 37.0503 25.1589 36.8417 25.1583Z" fill="#FF870F"/>
<path d="M44.1854 24.4167C43.7661 24.4123 43.3651 24.244 43.0684 23.9476C42.7717 23.6513 42.6028 23.2506 42.5979 22.8313C42.6012 20.7894 42.2018 18.7669 41.4226 16.8795C40.6434 14.9922 39.4998 13.277 38.057 11.8321C36.6142 10.3872 34.9007 9.241 33.0145 8.45904C31.1283 7.67708 29.1064 7.27473 27.0646 7.275C26.8514 7.28273 26.6388 7.24741 26.4396 7.17117C26.2404 7.09492 26.0586 6.9793 25.905 6.83122C25.7515 6.68315 25.6294 6.50564 25.546 6.30931C25.4625 6.11298 25.4196 5.90186 25.4196 5.68854C25.4196 5.47523 25.4625 5.2641 25.546 5.06778C25.6294 4.87145 25.7515 4.69394 25.905 4.54586C26.0586 4.39778 26.2404 4.28217 26.4396 4.20592C26.6388 4.12967 26.8514 4.09436 27.0646 4.10209C29.5231 4.10208 31.9576 4.58668 34.2287 5.52816C36.4999 6.46965 38.5632 7.84956 40.3007 9.58899C42.0382 11.3284 43.4158 13.3933 44.3548 15.6655C45.2937 17.9377 45.7756 20.3727 45.7729 22.8313C45.7734 23.0399 45.7328 23.2466 45.6532 23.4394C45.5736 23.6323 45.4567 23.8075 45.3091 23.955C45.1616 24.1025 44.9864 24.2194 44.7936 24.299C44.6007 24.3786 44.394 24.4172 44.1854 24.4167Z" fill="#FF870F"/>
</svg>
