<svg width="29" height="28" viewBox="0 0 29 28" fill="none" xmlns="http://www.w3.org/2000/svg">
<path d="M12.4746 17.6132C11.8843 20.7935 11.1656 23.8432 9.03298 25.4357C8.37614 20.629 10.0001 17.0182 10.7538 13.1857C9.46814 10.9573 10.909 6.4715 13.6203 7.57633C16.957 8.93667 10.7305 15.862 14.9106 16.7277C19.2751 17.6307 21.0578 8.93083 18.3511 6.1005C14.4405 2.016 6.96798 6.00833 7.88731 11.8568C8.11131 13.2872 9.54514 13.7212 8.46014 15.6952C5.95764 15.1223 5.21098 13.09 5.30781 10.3798C5.46181 5.9465 9.17764 2.84083 12.904 2.4115C17.6173 1.86783 22.0401 4.193 22.6503 8.75817C23.3386 13.9102 20.5235 19.4915 15.4846 19.089C14.1185 18.9805 13.5445 18.284 12.4746 17.6132Z" fill="#FDFDFD"/>
</svg>
