<svg width="501" height="453" viewBox="0 0 501 453" fill="none" xmlns="http://www.w3.org/2000/svg">
<path d="M417.246 72.2559L424.474 75.6006V75.6016L424.264 76.0547L429.684 78.5645L429.894 78.1104L433.508 79.7832V79.7842L433.298 80.2373L435.104 81.0742L435.313 80.6201L442.54 83.9658L442.331 84.4199L447.751 86.9297L447.961 86.4756L451.574 88.1484L451.365 88.6025L453.172 89.4385L453.382 88.9854V88.9844L460.608 92.3301V92.3311L460.398 92.7842L465.819 95.2939L466.028 94.8398L469.642 96.5127L469.433 96.9668L470.336 97.3848C470.626 97.5192 470.915 97.6564 471.202 97.7959L471.42 97.3467V97.3457C473.761 98.4838 475.988 99.7892 478.091 101.24L477.809 101.65C479.392 102.743 480.904 103.92 482.339 105.174L482.667 104.798C483.64 105.648 484.579 106.532 485.48 107.449L485.124 107.8C485.572 108.255 486.011 108.719 486.44 109.19L486.809 108.854C488.548 110.763 490.138 112.798 491.565 114.941H491.566L491.15 115.219C492.211 116.812 493.181 118.465 494.056 120.169L494.498 119.941C495.086 121.087 495.631 122.255 496.132 123.444L495.673 123.638C495.92 124.225 496.156 124.818 496.381 125.416L496.849 125.24C497.753 127.641 498.478 130.119 499.015 132.655L498.527 132.759C498.921 134.621 499.212 136.515 499.394 138.433L499.889 138.385C500.01 139.662 500.084 140.949 500.108 142.244L499.61 142.254C499.616 142.573 499.619 142.892 499.619 143.212V144.25H500.119V152.554H499.619V158.781H500.119V162.933H499.619V165.009H500.119V173.312H499.619V179.539H500.119V183.691H499.619V185.767H500.119V194.07H499.619V200.298H500.119V204.449H499.619V206.525H500.119V214.829H499.619V221.057H500.119V225.208H499.619V227.284H500.119V235.587H499.619V241.814H500.119V245.967H499.619V248.042H500.119V256.346H499.619V262.573H500.119V266.725H499.619V268.801H500.119V277.104H499.619V283.332H500.119V287.483H499.619V289.56H500.119V297.862H499.619V304.09H500.119V308.242H499.619V309.28C499.619 309.6 499.616 309.919 499.61 310.238L500.108 310.247C500.059 312.85 499.811 315.419 499.378 317.938L498.888 317.854C498.561 319.749 498.128 321.616 497.594 323.445L498.072 323.584C497.71 324.824 497.302 326.047 496.849 327.251L496.381 327.075C496.156 327.673 495.92 328.266 495.673 328.854L496.132 329.047C495.13 331.428 493.951 333.725 492.605 335.921L492.181 335.66C491.181 337.292 490.089 338.867 488.909 340.377L489.302 340.683C488.509 341.698 487.677 342.684 486.808 343.638L486.44 343.302C486.011 343.773 485.572 344.237 485.124 344.692L485.48 345.042C483.682 346.872 481.737 348.571 479.661 350.123L479.363 349.725C477.839 350.864 476.242 351.923 474.578 352.894L474.829 353.323C473.721 353.97 472.585 354.579 471.42 355.146L471.202 354.696L470.336 355.106L469.433 355.525L469.643 355.979L462.415 359.324L462.205 358.871L456.785 361.38L456.995 361.834L453.382 363.507L453.172 363.053L451.365 363.89L451.574 364.343L444.348 367.689L444.138 367.235L438.718 369.745L438.928 370.198L435.313 371.871L435.104 371.418L433.298 372.254L433.508 372.708L426.28 376.054L426.07 375.601L420.65 378.109L420.86 378.563L417.246 380.235L417.037 379.782L415.23 380.619L415.439 381.072L408.212 384.418L408.003 383.965L402.583 386.475L402.793 386.928L399.18 388.601L398.97 388.147L397.162 388.983L397.372 389.437L390.146 392.783L389.936 392.329L384.516 394.839L384.725 395.292L381.111 396.965L380.901 396.512L379.095 397.349L379.305 397.802L372.077 401.147L371.868 400.694L366.448 403.204L366.658 403.657L363.045 405.33L362.834 404.877L361.027 405.713L361.237 406.167L354.011 409.513L353.801 409.059L348.381 411.568L348.59 412.021L344.977 413.695L344.767 413.241L342.96 414.078L343.17 414.531L335.943 417.877L335.733 417.424L330.312 419.933L330.523 420.387L326.909 422.06L326.699 421.606L324.893 422.442L325.103 422.896L317.875 426.241L317.666 425.788L312.245 428.298L312.455 428.751L308.841 430.424L308.632 429.971L306.825 430.807L307.035 431.261L299.809 434.606L299.599 434.153L294.178 436.662L294.388 437.116L290.774 438.789L290.564 438.335L288.758 439.172L288.967 439.625L281.74 442.971L281.531 442.518L276.11 445.027L276.32 445.48L272.707 447.153L272.497 446.7L271.594 447.118C271.262 447.272 270.929 447.421 270.595 447.567L270.794 448.024C268.071 449.214 265.27 450.155 262.424 450.847L262.307 450.362C260.173 450.881 258.012 451.259 255.841 451.495L255.894 451.991C254.427 452.151 252.955 452.245 251.481 452.277L251.472 451.779C250.742 451.795 250.012 451.795 249.282 451.779L249.271 452.277C246.328 452.214 243.39 451.895 240.489 451.322L240.587 450.833C238.447 450.41 236.327 449.847 234.243 449.145L234.083 449.618C232.692 449.149 231.316 448.617 229.959 448.024L230.159 447.567C229.825 447.421 229.493 447.272 229.161 447.118L228.258 446.7L228.047 447.153H228.046L220.819 443.808H220.82L221.03 443.354L215.61 440.845L215.4 441.298L211.786 439.625L211.997 439.172L210.189 438.335L209.979 438.788L202.753 435.442L202.963 434.989L197.543 432.48L197.333 432.934H197.332L193.719 431.26L193.93 430.807L192.122 429.971L191.912 430.424L184.685 427.078H184.686L184.896 426.625L179.476 424.115L179.266 424.569L175.651 422.896L175.861 422.442L174.055 421.606L173.844 422.06L166.617 418.714L166.828 418.26L161.408 415.751L161.196 416.204L157.583 414.531L157.794 414.078L155.987 413.241L155.777 413.694L148.551 410.349L148.761 409.896L143.34 407.386L143.13 407.839L139.517 406.166L139.727 405.713L137.92 404.877L137.709 405.33L130.482 401.984H130.483L130.693 401.53L125.272 399.021L125.062 399.475H125.062L121.448 397.802H121.449L121.659 397.349L119.853 396.512L119.643 396.965L112.416 393.619L112.626 393.166L107.205 390.656L106.995 391.109L103.382 389.437L103.592 388.983L101.785 388.147L101.575 388.601H101.574L94.3477 385.254L94.5586 384.802L89.1377 382.292L88.9277 382.745L85.3135 381.072H85.3145L85.5244 380.619L83.7178 379.782L83.5078 380.235L76.2803 376.89L76.4902 376.437L71.0703 373.928L70.8594 374.381L67.2461 372.708L67.457 372.254L65.6504 371.418L65.4404 371.871L58.2119 368.525L58.4229 368.072L53.0029 365.562L52.793 366.016L49.1797 364.343L49.3896 363.89L47.583 363.053L47.3721 363.507L40.1455 360.16L40.3555 359.707L34.9355 357.198L34.7256 357.651H34.7246L31.1113 355.979H31.1123L31.3223 355.525L30.4189 355.106L29.5527 354.696L29.334 355.145C26.9928 354.006 24.7659 352.702 22.6631 351.251L22.9453 350.841C21.3621 349.748 19.8503 348.571 18.415 347.317L18.0859 347.692C17.1131 346.843 16.1751 345.958 15.2734 345.041L15.6299 344.692C15.1822 344.237 14.7439 343.773 14.3145 343.302L13.9453 343.637C12.2057 341.728 10.6156 339.693 9.18848 337.55L9.60449 337.273C8.54366 335.681 7.57356 334.028 6.69922 332.323L6.25488 332.551C5.66719 331.405 5.12247 330.236 4.62207 329.047L5.08203 328.854C4.8348 328.266 4.59818 327.673 4.37305 327.075L3.90527 327.251C3.00075 324.85 2.27555 322.372 1.73926 319.836L2.22656 319.733C1.83273 317.871 1.54316 315.977 1.36133 314.06L0.864258 314.105C0.743264 312.829 0.668969 311.542 0.644531 310.247L1.14453 310.238L1.13477 309.28V308.242H0.634766V299.938H1.13477V293.711H0.634766V289.56H1.13477V287.483H0.634766V279.18H1.13477V272.952H0.634766V268.801H1.13477V266.725H0.634766V258.422H1.13477V252.194H0.634766V248.042H1.13477V245.967H0.634766V237.663H1.13477V231.436H0.634766V227.284H1.13477V225.208H0.634766V216.904H1.13477V210.677H0.634766V206.525H1.13477V204.449H0.634766V196.146H1.13477V189.919H0.634766V185.767H1.13477V183.691H0.634766V175.388H1.13477V169.16H0.634766V165.009H1.13477V162.933H0.634766V154.629H1.13477V148.401H0.634766V144.25H1.13477V143.212C1.13477 142.892 1.13851 142.573 1.14453 142.254L0.644531 142.244C0.693675 139.641 0.941619 137.072 1.375 134.554L1.86621 134.639C2.19249 132.743 2.62548 130.876 3.16016 129.047L2.68164 128.906C3.04402 127.667 3.45191 126.444 3.90527 125.24L4.37305 125.416C4.59818 124.818 4.8348 124.225 5.08203 123.638L4.62207 123.444C5.51688 121.317 6.55262 119.256 7.72266 117.275L8.14746 116.57L8.57324 116.831C9.57301 115.199 10.6654 113.625 11.8447 112.115L11.4512 111.808C12.2438 110.793 13.0762 109.808 13.9453 108.854L14.3145 109.19C14.7439 108.719 15.1821 108.255 15.6299 107.8L15.2734 107.449C17.0724 105.62 19.0168 103.92 21.0928 102.368L21.3916 102.768C22.9158 101.628 24.5122 100.569 26.1758 99.5986L25.9248 99.167C27.0323 98.5209 28.1689 97.913 29.334 97.3467L29.5527 97.7959L30.4189 97.3848L31.3223 96.9668L31.1123 96.5127L38.3389 93.167L38.5488 93.6211L43.9697 91.1113L43.7588 90.6582L47.3721 88.9844L47.373 88.9854L47.583 89.4385L49.3896 88.6025L49.1797 88.1484L56.4062 84.8027L56.6162 85.2559L62.0371 82.7471L61.8271 82.293L65.4404 80.6201L65.6504 81.0742L67.457 80.2373L67.2471 79.7842L67.2461 79.7832L74.4736 76.4375L74.6836 76.8916L80.1045 74.3818L79.8945 73.9287L83.5078 72.2559L83.7178 72.709L85.5244 71.873L85.3145 71.4189L92.541 68.0732L92.752 68.5273L98.1719 66.0176L97.9619 65.5635L101.575 63.8906L101.785 64.3447L103.592 63.5078L103.382 63.0547L110.608 59.709L110.819 60.1621L116.239 57.6533L116.029 57.1992L119.643 55.5264L119.853 55.9795L121.659 55.1436L121.449 54.6895L128.677 51.3438L128.887 51.7979L134.307 49.2881L134.097 48.834L137.71 47.1611L137.92 47.6152L139.727 46.7783L139.517 46.3252L146.743 42.9785L146.744 42.9795L146.954 43.4326L152.374 40.9238L152.164 40.4697L155.777 38.7969L155.987 39.251L157.794 38.4141L157.584 37.96L164.812 34.6143L165.021 35.0684L170.441 32.5586L170.231 32.1055L170.23 32.1045L173.845 30.4316L174.055 30.8857L175.861 30.0498L175.651 29.5957L182.879 26.25L183.089 26.7031L188.509 24.1943L188.299 23.7402L191.912 22.0674L192.122 22.5215L193.93 21.6846L193.719 21.2314L200.946 17.8848L201.156 18.3389L206.576 15.8291L206.366 15.376L209.979 13.7031L210.19 14.1562L211.997 13.3203L211.787 12.8662L219.014 9.52051L219.224 9.97461L224.644 7.46484L224.434 7.01074L228.047 5.33789L228.258 5.79199L229.161 5.37402C229.493 5.2205 229.825 5.06978 230.159 4.92383L229.959 4.4668C232.682 3.27692 235.483 2.33558 238.33 1.64355L238.448 2.12891C240.582 1.61015 242.742 1.23329 244.914 0.99707L244.859 0.5L244.858 0.499023C246.325 0.339398 247.798 0.244827 249.271 0.212891L249.282 0.711914C250.012 0.696103 250.742 0.696106 251.472 0.711914L251.481 0.212891C254.424 0.27659 257.363 0.594903 260.264 1.16797L260.168 1.6582C262.308 2.08105 264.427 2.64382 266.512 3.34668L266.67 2.87305C268.061 3.34225 269.437 3.87401 270.794 4.4668L270.595 4.92383L271.594 5.37402L272.497 5.79199L272.706 5.33789L279.934 8.68359L279.724 9.1377L285.145 11.6475L285.354 11.1934L288.967 12.8662H288.968L288.758 13.3203L290.564 14.1562L290.774 13.7031V13.7021L298.001 17.0488H298.002L297.792 17.502L303.212 20.0117L303.421 19.5576L307.035 21.2305V21.2314L306.825 21.6846L308.632 22.5215L308.841 22.0674L316.068 25.4131L315.859 25.8672L321.279 28.376L321.489 27.9229L325.103 29.5947V29.5957L324.893 30.0498L326.699 30.8857L326.909 30.4326V30.4316L334.137 33.7773V33.7783L333.927 34.2314L339.347 36.7412L339.556 36.2871L343.169 37.96L342.96 38.4141L344.767 39.251L344.977 38.7969V38.7959L352.203 42.1426L351.994 42.5967L357.414 45.1055L357.624 44.6523V44.6514L361.237 46.3242V46.3252L361.027 46.7783L362.834 47.6152L363.044 47.1611L370.271 50.5068V50.5078L370.062 50.9609L375.481 53.4707L375.69 53.0166L379.304 54.6895H379.305L379.095 55.1436L380.901 55.9795L381.111 55.5264L388.338 58.8721H388.339L388.129 59.3262L393.549 61.835L393.759 61.3818V61.3809L397.372 63.0547H397.373L397.162 63.5078L398.97 64.3447L399.179 63.8906L406.405 67.2363L406.196 67.6904L411.616 70.2002L411.825 69.7461L415.439 71.4189L415.23 71.873L417.037 72.709L417.246 72.2559Z" stroke="#FF870F" stroke-dasharray="2 4 6 8"/>
</svg>
