<svg width="102" height="25" viewBox="0 0 102 25" fill="none" xmlns="http://www.w3.org/2000/svg">
<path d="M21 16.4525L25.635 19.25L24.405 13.9775L28.5 10.43L23.1075 9.9725L21 5L18.8925 9.9725L13.5 10.43L17.595 13.9775L16.365 19.25L21 16.4525Z" fill="#FDFDFD"/>
<path d="M36 16.4525L40.635 19.25L39.405 13.9775L43.5 10.43L38.1075 9.9725L36 5L33.8925 9.9725L28.5 10.43L32.595 13.9775L31.365 19.25L36 16.4525Z" fill="#FDFDFD"/>
<path d="M51 16.4525L55.635 19.25L54.405 13.9775L58.5 10.43L53.1075 9.9725L51 5L48.8925 9.9725L43.5 10.43L47.595 13.9775L46.365 19.25L51 16.4525Z" fill="#FDFDFD"/>
<path d="M66 16.4525L70.635 19.25L69.405 13.9775L73.5 10.43L68.1075 9.9725L66 5L63.8925 9.9725L58.5 10.43L62.595 13.9775L61.365 19.25L66 16.4525Z" fill="#FDFDFD"/>
<path d="M81 16.4525L85.635 19.25L84.405 13.9775L88.5 10.43L83.1075 9.9725L81 5L78.8925 9.9725L73.5 10.43L77.595 13.9775L76.365 19.25L81 16.4525Z" fill="#FDFDFD"/>
</svg>
