<svg width="58" height="58" viewBox="0 0 58 58" fill="none" xmlns="http://www.w3.org/2000/svg">
<rect width="53.4979" height="53.4979" rx="5" fill="#00866B"/>
<path d="M26.7647 19.4569H30.2353V16.3972H26.7647V19.4569ZM28.5 26.9735C26.7995 26.9735 25.1549 26.7143 23.5663 26.196C21.9798 25.6777 20.4577 25.0188 19 24.2195V21.7112C19 21.0914 19.2502 20.561 19.7505 20.1199C20.2508 19.6788 20.8536 19.4578 21.5587 19.4569H25.1813V16.0748C25.1813 15.7863 25.3027 15.5351 25.5455 15.321C25.7883 15.107 26.0728 15 26.3989 15H30.6011C30.9283 15 31.2133 15.107 31.4561 15.321C31.6989 15.5351 31.8203 15.7863 31.8203 16.0748V19.4569H35.4429C36.1459 19.4569 36.7476 19.6779 37.2479 20.1199C37.7482 20.5619 37.9989 21.0924 38 21.7112V24.2195C36.5433 25.0198 35.0212 25.6786 33.4337 26.196C31.8461 26.7143 30.2016 26.9735 28.5 26.9735ZM21.5587 38.9986V37.6028C20.8546 37.6028 20.2524 37.3818 19.7521 36.9397C19.2517 36.4977 19.0011 35.9678 19 35.3499V25.8582C20.3564 26.5412 21.7587 27.1042 23.2069 27.5472C24.6551 27.9883 26.1556 28.2572 27.7083 28.354V29.7652H29.2917V28.354C30.8444 28.2572 32.3449 27.9878 33.7931 27.5458C35.2424 27.1038 36.6447 26.5408 38 25.8568V35.3485C38 35.9692 37.7493 36.5001 37.2479 36.9411C36.7465 37.3822 36.1449 37.6032 35.4429 37.6042V39H33.8596V37.6042H23.1404V39L21.5587 38.9986Z" fill="#FDFDFD"/>
<rect x="2.5" y="2.25" width="55" height="55" rx="4.5" stroke="#00866B" stroke-dasharray="2 4 6 8"/>
</svg>
