<svg width="20" height="21" viewBox="0 0 20 21" fill="none" xmlns="http://www.w3.org/2000/svg">
<path d="M8.904 5.97127H11.096V3.93149H8.904V5.97127ZM10 10.9823C8.926 10.9823 7.88733 10.8095 6.884 10.464C5.882 10.1185 4.92067 9.67923 4 9.14633V7.47412C4 7.06095 4.158 6.70734 4.474 6.41328C4.79 6.11923 5.17067 5.97189 5.616 5.97127H7.904V3.71653C7.904 3.52421 7.98067 3.35671 8.134 3.21403C8.28733 3.07134 8.467 3 8.673 3H11.327C11.5337 3 11.7137 3.07134 11.867 3.21403C12.0203 3.35671 12.097 3.52421 12.097 3.71653V5.97127H14.385C14.829 5.97127 15.209 6.11861 15.525 6.41328C15.841 6.70796 15.9993 7.06157 16 7.47412V9.14633C15.08 9.67985 14.1187 10.1191 13.116 10.464C12.1133 10.8095 11.0747 10.9823 10 10.9823ZM5.616 18.9991V18.0685C5.17133 18.0685 4.791 17.9212 4.475 17.6265C4.159 17.3318 4.00067 16.9785 4 16.5666V10.2388C4.85667 10.6942 5.74233 11.0695 6.657 11.3648C7.57167 11.6588 8.51933 11.8381 9.5 11.9026V12.8434H10.5V11.9026C11.4807 11.8381 12.4283 11.6585 13.343 11.3638C14.2583 11.0692 15.144 10.6938 16 10.2379V16.5657C16 16.9794 15.8417 17.3334 15.525 17.6274C15.2083 17.9215 14.8283 18.0688 14.385 18.0694V19H13.385V18.0694H6.615V19L5.616 18.9991Z" fill="#FF870F"/>
</svg>
