<svg width="31" height="31" viewBox="0 0 31 31" fill="none" xmlns="http://www.w3.org/2000/svg">
<path d="M27.0838 30.2719C26.8392 30.1224 26.5266 29.7962 26.3635 29.5516C26.0918 29.1032 26.0918 28.9265 26.0918 18.3811V7.65902L15.4648 18.286C3.88658 29.837 4.44375 29.3478 3.15275 29.1168C2.47328 28.9945 1.56279 28.084 1.44048 27.4045C1.20946 26.1135 0.720241 26.6707 12.2713 15.106L22.8982 4.4655H12.1762C1.60356 4.4655 1.45407 4.4655 1.00562 4.18012C0.326147 3.77243 0 3.13373 0 2.264C0 1.38069 0.353326 0.755574 1.08716 0.334301C1.56279 0.0489221 1.72586 0.048922 14.9212 0.00815367C24.3795 -0.0190252 28.4427 0.0217431 28.8504 0.130459C29.5571 0.320711 30.2365 1.00018 30.4268 1.70684C30.5355 2.11452 30.5763 6.17777 30.5491 15.636C30.5083 28.8314 30.5083 28.9945 30.223 29.4701C29.7881 30.2175 29.1766 30.5573 28.2797 30.5573C27.7497 30.5573 27.3828 30.4757 27.0838 30.2719Z" fill="#00866B"/>
</svg>
